<svg width="36" height="36" xmlns="http://www.w3.org/2000/svg" data-tid="dba1c959" class="Card__placeholder-logo--NEFkQ" fill="#202020">

 <g>
  <title>Layer 1</title>
  <path fill="#ffffff" id="svg_1" d="m9.211,31.5l2.472,-11.25l-3.37,0l-1.573,6.75l-4.606,0l1.573,-6.75l-3.707,0l0,-4.5l4.718,0l2.022,-9l4.606,0l-2.022,9l3.37,0l1.01,-4.5l4.606,0l-4.493,20.25l-4.607,0l0.001,0zm25.95,-20.14c0.673,1.679 0.926,3.501 0.813,5.515c-0.337,1.678 -0.926,3.436 -2.05,5.115c-2.134,3.356 -5.616,6.041 -9.772,7.832l-1.685,0.671l-0.112,0c-1.573,0.448 -3.483,0.783 -5.055,1.007l4.493,-20.25l4.605,0l-3.033,13.537l0.337,-0.224c2.696,-1.455 4.83,-3.245 6.179,-5.37c1.46,-2.35 1.797,-4.588 1.01,-6.49c-0.898,-1.902 -2.808,-3.245 -5.504,-3.804c-0.898,-0.112 -1.797,-0.224 -2.808,-0.224c-1.235,0 -2.471,0.224 -3.707,0.447l0.899,-4.475c2.359,-0.224 4.605,-0.224 6.74,0.224c1.91,0.447 3.707,1.23 5.167,2.238c1.573,1.118 2.808,2.573 3.482,4.251l0.001,0z"/>
 </g>
</svg>